
    <svg
        width="1200"
        height="420"
        viewBox="0 0 1200 420"
        fill="none"
        xmlns="http://www.w3.org/2000/svg">
            <rect xmlns="http://www.w3.org/2000/svg" data-testid="card_bg" id="cardBg"
            x="0" y="0" rx="0" height="100%" stroke="#E4E2E2" fill-opacity="1"
            width="100%" fill="#0D1117" stroke-opacity="1" style="stroke:#ffffff; stroke-width:1;"/>

            <style>
                body {
                    font: 600 18px 'Segoe UI', Ubuntu, Sans-Serif;
                }
                .header {
                    font: 600 20px 'Segoe UI', Ubuntu, Sans-Serif;
                    text-align: center;
                    color: #00FFCC;
                    margin-top: 20px;
                }
                svg {
                    font: 600 18px 'Segoe UI', Ubuntu, Sans-Serif;
                    user-select: none;
                }
                
    .ct-label {
      fill: #00FFCC;
      color: #00FFCC;
      font-size: .75rem;
      line-height: 1;
    }

    .ct-grid-background,
    .ct-line {
      fill: none;
    }

    .ct-chart-bar .ct-label,
    .ct-chart-line .ct-label {
      display: block;
      display: -webkit-box;
      display: -moz-box;
      display: -ms-flexbox;
      display: -webkit-flex;
      display: flex;
    }

    .ct-label.ct-horizontal.ct-start {
      -webkit-box-align: flex-end;
      -webkit-align-items: flex-end;
      -ms-flex-align: flex-end;
      align-items: flex-end;
      -webkit-box-pack: flex-start;
      -webkit-justify-content: flex-start;
      -ms-flex-pack: flex-start;
      justify-content: flex-start;
      text-align: left;
      text-anchor: start;
    }

    .ct-label.ct-horizontal.ct-end {
      -webkit-box-align: flex-start;
      -webkit-align-items: flex-start;
      -ms-flex-align: flex-start;
      align-items: flex-start;
      -webkit-box-pack: flex-start;
      -webkit-justify-content: flex-start;
      -ms-flex-pack: flex-start;
      justify-content: flex-start;
      text-align: left;
      text-anchor: start;
    }

    .ct-label.ct-vertical.ct-start {
      -webkit-box-align: flex-end;
      -webkit-align-items: flex-end;
      -ms-flex-align: flex-end;
      align-items: flex-end;
      -webkit-box-pack: flex-end;
      -webkit-justify-content: flex-end;
      -ms-flex-pack: flex-end;
      justify-content: flex-end;
      text-align: right;
      text-anchor: end;
    }

    .ct-label.ct-vertical.ct-end {
      -webkit-box-align: flex-end;
      -webkit-align-items: flex-end;
      -ms-flex-align: flex-end;
      align-items: flex-end;
      -webkit-box-pack: flex-start;
      -webkit-justify-content: flex-start;
      -ms-flex-pack: flex-start;
      justify-content: flex-start;
      text-align: left;
      text-anchor: start;
    }

    .ct-grid {
      stroke: #00FFCC;
      stroke-width: 1px;
      stroke-opacity: 0.3;
      stroke-dasharray: 2px;
    }

    .ct-point {
      stroke-width: 10px;
      stroke-linecap: round;
      stroke: #FF007F;
      animation: blink 1s ease-in-out forwards;
    }

    .ct-line {
      stroke-width: 4px;
      stroke-dasharray: 5000;
      stroke-dashoffset: 5000;
      stroke: #00FFCC;
      animation: dash 5s ease-in-out forwards;
    }

    .ct-area {
      stroke: none;
      fill-opacity: 0.1;
    }

    .ct-series-a .ct-area,
    .ct-series-a .ct-slice-pie {
      fill: #00FFCC;
    }

    .ct-label .ct-horizontal {
      transform: rotate(-90deg)
    }
    
                
        @keyframes blink {
            from {
                opacity: 0;
                transform:translateX(-20px); 
            }
            to {
                opacity:1;
                transform: translateX(0);
            }
        }
    
                
        @keyframes dash {
            to {
                stroke-dashoffset: 0;
            }
        }
    
    
            </style>

            <foreignObject x="0" y="0" width="1200" height="50">
                <h1 xmlns="http://www.w3.org/1999/xhtml" class="header">
                    31-Day Commit Activity Pulse
                </h1>
            </foreignObject>
            <svg xmlns:ct="http://gionkunz.github.com/chartist-js/ct" width="1200" height="420" class="ct-chart-line"><g class="ct-grids"><line x1="90" x2="90" y1="80" y2="350" class="ct-grid ct-horizontal"></line><line x1="125.33333333333334" x2="125.33333333333334" y1="80" y2="350" class="ct-grid ct-horizontal"></line><line x1="160.66666666666669" x2="160.66666666666669" y1="80" y2="350" class="ct-grid ct-horizontal"></line><line x1="196" x2="196" y1="80" y2="350" class="ct-grid ct-horizontal"></line><line x1="231.33333333333334" x2="231.33333333333334" y1="80" y2="350" class="ct-grid ct-horizontal"></line><line x1="266.6666666666667" x2="266.6666666666667" y1="80" y2="350" class="ct-grid ct-horizontal"></line><line x1="302" x2="302" y1="80" y2="350" class="ct-grid ct-horizontal"></line><line x1="337.33333333333337" x2="337.33333333333337" y1="80" y2="350" class="ct-grid ct-horizontal"></line><line x1="372.6666666666667" x2="372.6666666666667" y1="80" y2="350" class="ct-grid ct-horizontal"></line><line x1="408" x2="408" y1="80" y2="350" class="ct-grid ct-horizontal"></line><line x1="443.33333333333337" x2="443.33333333333337" y1="80" y2="350" class="ct-grid ct-horizontal"></line><line x1="478.6666666666667" x2="478.6666666666667" y1="80" y2="350" class="ct-grid ct-horizontal"></line><line x1="514" x2="514" y1="80" y2="350" class="ct-grid ct-horizontal"></line><line x1="549.3333333333334" x2="549.3333333333334" y1="80" y2="350" class="ct-grid ct-horizontal"></line><line x1="584.6666666666667" x2="584.6666666666667" y1="80" y2="350" class="ct-grid ct-horizontal"></line><line x1="620" x2="620" y1="80" y2="350" class="ct-grid ct-horizontal"></line><line x1="655.3333333333334" x2="655.3333333333334" y1="80" y2="350" class="ct-grid ct-horizontal"></line><line x1="690.6666666666667" x2="690.6666666666667" y1="80" y2="350" class="ct-grid ct-horizontal"></line><line x1="726" x2="726" y1="80" y2="350" class="ct-grid ct-horizontal"></line><line x1="761.3333333333334" x2="761.3333333333334" y1="80" y2="350" class="ct-grid ct-horizontal"></line><line x1="796.6666666666667" x2="796.6666666666667" y1="80" y2="350" class="ct-grid ct-horizontal"></line><line x1="832" x2="832" y1="80" y2="350" class="ct-grid ct-horizontal"></line><line x1="867.3333333333334" x2="867.3333333333334" y1="80" y2="350" class="ct-grid ct-horizontal"></line><line x1="902.6666666666667" x2="902.6666666666667" y1="80" y2="350" class="ct-grid ct-horizontal"></line><line x1="938" x2="938" y1="80" y2="350" class="ct-grid ct-horizontal"></line><line x1="973.3333333333334" x2="973.3333333333334" y1="80" y2="350" class="ct-grid ct-horizontal"></line><line x1="1008.6666666666667" x2="1008.6666666666667" y1="80" y2="350" class="ct-grid ct-horizontal"></line><line x1="1044" x2="1044" y1="80" y2="350" class="ct-grid ct-horizontal"></line><line x1="1079.3333333333335" x2="1079.3333333333335" y1="80" y2="350" class="ct-grid ct-horizontal"></line><line x1="1114.6666666666667" x2="1114.6666666666667" y1="80" y2="350" class="ct-grid ct-horizontal"></line><line x1="1150" x2="1150" y1="80" y2="350" class="ct-grid ct-horizontal"></line><line y1="350" y2="350" x1="90" x2="1150" class="ct-grid ct-vertical"></line><line y1="316.25" y2="316.25" x1="90" x2="1150" class="ct-grid ct-vertical"></line><line y1="282.5" y2="282.5" x1="90" x2="1150" class="ct-grid ct-vertical"></line><line y1="248.75" y2="248.75" x1="90" x2="1150" class="ct-grid ct-vertical"></line><line y1="215" y2="215" x1="90" x2="1150" class="ct-grid ct-vertical"></line><line y1="181.25" y2="181.25" x1="90" x2="1150" class="ct-grid ct-vertical"></line><line y1="147.5" y2="147.5" x1="90" x2="1150" class="ct-grid ct-vertical"></line><line y1="113.75" y2="113.75" x1="90" x2="1150" class="ct-grid ct-vertical"></line><line y1="80" y2="80" x1="90" x2="1150" class="ct-grid ct-vertical"></line></g><g><g class="ct-series ct-series-a"><path d="M90,350L90,347.3C101.778,346.85,113.556,345.95,125.333,345.95C137.111,345.95,148.889,347.3,160.667,347.3C172.444,347.3,184.222,347.3,196,347.3C207.778,347.3,219.556,347.3,231.333,347.3C243.111,347.3,254.889,345.95,266.667,345.95C278.444,345.95,290.222,347.3,302,347.3C313.778,347.3,325.556,347.3,337.333,347.3C349.111,347.3,360.889,198.8,372.667,198.8C384.444,198.8,396.222,281.15,408,281.15C419.778,281.15,431.556,201.5,443.333,201.5C455.111,201.5,466.889,345.95,478.667,345.95C490.444,345.95,502.222,210.95,514,210.95C525.778,210.95,537.556,348.65,549.333,348.65C561.111,348.65,572.889,183.95,584.667,183.95C596.444,183.95,608.222,228.354,620,255.5C631.778,282.646,643.556,350,655.333,350C667.111,350,678.889,250.1,690.667,250.1C702.444,250.1,714.222,348.65,726,348.65C737.778,348.65,749.556,277.1,761.333,277.1C773.111,277.1,784.889,348.65,796.667,348.65C808.444,348.65,820.222,347.73,832,345.95C843.778,344.17,855.556,102.95,867.333,102.95C879.111,102.95,890.889,216.598,902.667,255.5C914.444,294.402,926.222,350,938,350C949.778,350,961.556,242,973.333,242C985.111,242,996.889,350,1008.667,350C1020.444,350,1032.222,215,1044,215C1055.778,215,1067.556,329.75,1079.333,329.75C1091.111,329.75,1102.889,193.4,1114.667,193.4C1126.444,193.4,1138.222,295.1,1150,345.95L1150,350Z" class="ct-area"></path><path d="M90,347.3C101.778,346.85,113.556,345.95,125.333,345.95C137.111,345.95,148.889,347.3,160.667,347.3C172.444,347.3,184.222,347.3,196,347.3C207.778,347.3,219.556,347.3,231.333,347.3C243.111,347.3,254.889,345.95,266.667,345.95C278.444,345.95,290.222,347.3,302,347.3C313.778,347.3,325.556,347.3,337.333,347.3C349.111,347.3,360.889,198.8,372.667,198.8C384.444,198.8,396.222,281.15,408,281.15C419.778,281.15,431.556,201.5,443.333,201.5C455.111,201.5,466.889,345.95,478.667,345.95C490.444,345.95,502.222,210.95,514,210.95C525.778,210.95,537.556,348.65,549.333,348.65C561.111,348.65,572.889,183.95,584.667,183.95C596.444,183.95,608.222,228.354,620,255.5C631.778,282.646,643.556,350,655.333,350C667.111,350,678.889,250.1,690.667,250.1C702.444,250.1,714.222,348.65,726,348.65C737.778,348.65,749.556,277.1,761.333,277.1C773.111,277.1,784.889,348.65,796.667,348.65C808.444,348.65,820.222,347.73,832,345.95C843.778,344.17,855.556,102.95,867.333,102.95C879.111,102.95,890.889,216.598,902.667,255.5C914.444,294.402,926.222,350,938,350C949.778,350,961.556,242,973.333,242C985.111,242,996.889,350,1008.667,350C1020.444,350,1032.222,215,1044,215C1055.778,215,1067.556,329.75,1079.333,329.75C1091.111,329.75,1102.889,193.4,1114.667,193.4C1126.444,193.4,1138.222,295.1,1150,345.95" class="ct-line"></path><line x1="90" y1="347.3" x2="90.01" y2="347.3" class="ct-point" ct:value="2"></line><line x1="125.33333333333334" y1="345.95" x2="125.34333333333335" y2="345.95" class="ct-point" ct:value="3"></line><line x1="160.66666666666669" y1="347.3" x2="160.67666666666668" y2="347.3" class="ct-point" ct:value="2"></line><line x1="196" y1="347.3" x2="196.01" y2="347.3" class="ct-point" ct:value="2"></line><line x1="231.33333333333334" y1="347.3" x2="231.34333333333333" y2="347.3" class="ct-point" ct:value="2"></line><line x1="266.6666666666667" y1="345.95" x2="266.6766666666667" y2="345.95" class="ct-point" ct:value="3"></line><line x1="302" y1="347.3" x2="302.01" y2="347.3" class="ct-point" ct:value="2"></line><line x1="337.33333333333337" y1="347.3" x2="337.34333333333336" y2="347.3" class="ct-point" ct:value="2"></line><line x1="372.6666666666667" y1="198.8" x2="372.6766666666667" y2="198.8" class="ct-point" ct:value="112"></line><line x1="408" y1="281.15" x2="408.01" y2="281.15" class="ct-point" ct:value="51"></line><line x1="443.33333333333337" y1="201.5" x2="443.34333333333336" y2="201.5" class="ct-point" ct:value="110"></line><line x1="478.6666666666667" y1="345.95" x2="478.6766666666667" y2="345.95" class="ct-point" ct:value="3"></line><line x1="514" y1="210.95" x2="514.01" y2="210.95" class="ct-point" ct:value="103"></line><line x1="549.3333333333334" y1="348.65" x2="549.3433333333334" y2="348.65" class="ct-point" ct:value="1"></line><line x1="584.6666666666667" y1="183.95" x2="584.6766666666667" y2="183.95" class="ct-point" ct:value="123"></line><line x1="620" y1="255.5" x2="620.01" y2="255.5" class="ct-point" ct:value="70"></line><line x1="655.3333333333334" y1="350" x2="655.3433333333334" y2="350" class="ct-point" ct:value="0"></line><line x1="690.6666666666667" y1="250.1" x2="690.6766666666667" y2="250.1" class="ct-point" ct:value="74"></line><line x1="726" y1="348.65" x2="726.01" y2="348.65" class="ct-point" ct:value="1"></line><line x1="761.3333333333334" y1="277.1" x2="761.3433333333334" y2="277.1" class="ct-point" ct:value="54"></line><line x1="796.6666666666667" y1="348.65" x2="796.6766666666667" y2="348.65" class="ct-point" ct:value="1"></line><line x1="832" y1="345.95" x2="832.01" y2="345.95" class="ct-point" ct:value="3"></line><line x1="867.3333333333334" y1="102.94999999999999" x2="867.3433333333334" y2="102.94999999999999" class="ct-point" ct:value="183"></line><line x1="902.6666666666667" y1="255.5" x2="902.6766666666667" y2="255.5" class="ct-point" ct:value="70"></line><line x1="938" y1="350" x2="938.01" y2="350" class="ct-point" ct:value="0"></line><line x1="973.3333333333334" y1="242" x2="973.3433333333334" y2="242" class="ct-point" ct:value="80"></line><line x1="1008.6666666666667" y1="350" x2="1008.6766666666667" y2="350" class="ct-point" ct:value="0"></line><line x1="1044" y1="215" x2="1044.01" y2="215" class="ct-point" ct:value="100"></line><line x1="1079.3333333333335" y1="329.75" x2="1079.3433333333335" y2="329.75" class="ct-point" ct:value="15"></line><line x1="1114.6666666666667" y1="193.4" x2="1114.6766666666667" y2="193.4" class="ct-point" ct:value="116"></line><line x1="1150" y1="345.95" x2="1150.01" y2="345.95" class="ct-point" ct:value="3"></line></g></g><g class="ct-labels"><text x="85.5" y="370" width="35.333333333333336" height="40" class="ct-label ct-horizontal ct-end">3</text><text x="120.83333333333334" y="370" width="35.333333333333336" height="40" class="ct-label ct-horizontal ct-end">4</text><text x="156.16666666666669" y="370" width="35.33333333333333" height="40" class="ct-label ct-horizontal ct-end">5</text><text x="191.5" y="370" width="35.33333333333334" height="40" class="ct-label ct-horizontal ct-end">6</text><text x="226.83333333333334" y="370" width="35.33333333333334" height="40" class="ct-label ct-horizontal ct-end">7</text><text x="262.1666666666667" y="370" width="35.333333333333314" height="40" class="ct-label ct-horizontal ct-end">8</text><text x="297.5" y="370" width="35.33333333333334" height="40" class="ct-label ct-horizontal ct-end">9</text><text x="332.83333333333337" y="370" width="35.33333333333334" height="40" class="ct-label ct-horizontal ct-end">10</text><text x="368.1666666666667" y="370" width="35.333333333333314" height="40" class="ct-label ct-horizontal ct-end">11</text><text x="403.5" y="370" width="35.33333333333337" height="40" class="ct-label ct-horizontal ct-end">12</text><text x="438.83333333333337" y="370" width="35.333333333333314" height="40" class="ct-label ct-horizontal ct-end">13</text><text x="474.1666666666667" y="370" width="35.333333333333314" height="40" class="ct-label ct-horizontal ct-end">14</text><text x="509.5" y="370" width="35.33333333333337" height="40" class="ct-label ct-horizontal ct-end">15</text><text x="544.8333333333334" y="370" width="35.333333333333314" height="40" class="ct-label ct-horizontal ct-end">16</text><text x="580.1666666666667" y="370" width="35.333333333333314" height="40" class="ct-label ct-horizontal ct-end">17</text><text x="615.5" y="370" width="35.33333333333337" height="40" class="ct-label ct-horizontal ct-end">18</text><text x="650.8333333333334" y="370" width="35.33333333333337" height="40" class="ct-label ct-horizontal ct-end">19</text><text x="686.1666666666667" y="370" width="35.33333333333326" height="40" class="ct-label ct-horizontal ct-end">20</text><text x="721.5" y="370" width="35.33333333333337" height="40" class="ct-label ct-horizontal ct-end">21</text><text x="756.8333333333334" y="370" width="35.33333333333337" height="40" class="ct-label ct-horizontal ct-end">22</text><text x="792.1666666666667" y="370" width="35.33333333333326" height="40" class="ct-label ct-horizontal ct-end">23</text><text x="827.5" y="370" width="35.33333333333337" height="40" class="ct-label ct-horizontal ct-end">24</text><text x="862.8333333333334" y="370" width="35.33333333333337" height="40" class="ct-label ct-horizontal ct-end">25</text><text x="898.1666666666667" y="370" width="35.33333333333326" height="40" class="ct-label ct-horizontal ct-end">26</text><text x="933.5" y="370" width="35.33333333333337" height="40" class="ct-label ct-horizontal ct-end">27</text><text x="968.8333333333334" y="370" width="35.33333333333337" height="40" class="ct-label ct-horizontal ct-end">28</text><text x="1004.1666666666667" y="370" width="35.33333333333337" height="40" class="ct-label ct-horizontal ct-end">29</text><text x="1039.5" y="370" width="35.33333333333326" height="40" class="ct-label ct-horizontal ct-end">30</text><text x="1074.8333333333335" y="370" width="35.33333333333337" height="40" class="ct-label ct-horizontal ct-end">31</text><text x="1110.1666666666667" y="370" width="35.33333333333326" height="40" class="ct-label ct-horizontal ct-end">1</text><text x="1145.5" y="370" width="30" height="40" class="ct-label ct-horizontal ct-end">2</text><text y="354.5" x="80" height="33.75" width="60" class="ct-label ct-vertical ct-start">0</text><text y="320.75" x="80" height="33.75" width="60" class="ct-label ct-vertical ct-start">25</text><text y="287" x="80" height="33.75" width="60" class="ct-label ct-vertical ct-start">50</text><text y="253.25" x="80" height="33.75" width="60" class="ct-label ct-vertical ct-start">75</text><text y="219.5" x="80" height="33.75" width="60" class="ct-label ct-vertical ct-start">100</text><text y="185.75" x="80" height="33.75" width="60" class="ct-label ct-vertical ct-start">125</text><text y="152" x="80" height="33.75" width="60" class="ct-label ct-vertical ct-start">150</text><text y="118.25" x="80" height="33.75" width="60" class="ct-label ct-vertical ct-start">175</text><text y="84.5" x="80" height="30" width="60" class="ct-label ct-vertical ct-start">200</text></g><text class="ct-axis-title ct-label" x="620" y="400" dominant-baseline="text-after-edge" text-anchor="middle">Days</text><text class="ct-axis-title ct-label" x="20" y="215" transform="rotate(-90, 20, 215)" dominant-baseline="hanging" text-anchor="middle">Contributions</text></svg>
    </svg>
